HIERARCHY
ROOT Hips
{
	OFFSET -13.091600 -28.302996 44.698402
	CHANNELS 6 Xposition Yposition Zposition Zrotation Xrotation Yrotation
	JOINT Chest
	{
		OFFSET -0.673000 0.623899 5.369202
		CHANNELS 6 Xposition Yposition Zposition Zrotation Xrotation Yrotation
		JOINT Chest2
		{
			OFFSET 0.000000 0.000000 4.415001
			CHANNELS 6 Xposition Yposition Zposition Zrotation Xrotation Yrotation
			JOINT Neck
			{
				OFFSET 0.000000 0.000002 10.273300
				CHANNELS 6 Xposition Yposition Zposition Zrotation Xrotation Yrotation
				JOINT Head
				{
					OFFSET 0.000000 0.000000 2.173897
					CHANNELS 6 Xposition Yposition Zposition Zrotation Xrotation Yrotation
					End Site
					{
						OFFSET 0.000000 0.000000 9.961800
					}
				}
			}
			JOINT LeftCollar
			{
				OFFSET 2.359900 -0.565201 5.928101
				CHANNELS 6 Xposition Yposition Zposition Zrotation Xrotation Yrotation
				JOINT LeftShoulder
				{
					OFFSET 5.443700 0.000000 0.000000
					CHANNELS 6 Xposition Yposition Zposition Zrotation Xrotation Yrotation
					JOINT LeftElbow
					{
						OFFSET 0.000000 0.000000 -10.615799
						CHANNELS 6 Xposition Yposition Zposition Zrotation Xrotation Yrotation
						JOINT LeftWrist
						{
							OFFSET 0.000000 -0.000002 -13.110302
							CHANNELS 6 Xposition Yposition Zposition Zrotation Xrotation Yrotation
							End Site
							{
								OFFSET 0.000000 0.000000 -2.173901
							}
						}
					}
				}
			}
			JOINT RightCollar
			{
				OFFSET -2.636600 -1.718800 6.889698
				CHANNELS 6 Xposition Yposition Zposition Zrotation Xrotation Yrotation
				JOINT RightShoulder
				{
					OFFSET -4.139101 0.000000 0.000000
					CHANNELS 6 Xposition Yposition Zposition Zrotation Xrotation Yrotation
					JOINT RightElbow
					{
						OFFSET 0.000000 0.000000 -10.471802
						CHANNELS 6 Xposition Yposition Zposition Zrotation Xrotation Yrotation
						JOINT RightWrist
						{
							OFFSET 0.000000 0.000000 -12.281898
							CHANNELS 6 Xposition Yposition Zposition Zrotation Xrotation Yrotation
							End Site
							{
								OFFSET 0.000000 -0.000002 -2.173901
							}
						}
					}
				}
			}
		}
	}
	JOINT LeftHip
	{
		OFFSET 2.273400 0.176701 -2.518002
		CHANNELS 6 Xposition Yposition Zposition Zrotation Xrotation Yrotation
		JOINT LeftKnee
		{
			OFFSET 0.000000 -0.000002 -20.456402
			CHANNELS 6 Xposition Yposition Zposition Zrotation Xrotation Yrotation
			JOINT LeftAnkle
			{
				OFFSET 0.000000 -0.000002 -16.635300
				CHANNELS 6 Xposition Yposition Zposition Zrotation Xrotation Yrotation
				End Site
				{
					OFFSET 0.000000 -8.812399 0.000001
				}
			}
		}
	}
	JOINT RightHip
	{
		OFFSET -1.914800 0.018101 -2.699299
		CHANNELS 6 Xposition Yposition Zposition Zrotation Xrotation Yrotation
		JOINT RightKnee
		{
			OFFSET 0.000000 -0.000002 -20.148901
			CHANNELS 6 Xposition Yposition Zposition Zrotation Xrotation Yrotation
			JOINT RightAnkle
			{
				OFFSET 0.000000 -0.000002 -16.838301
				CHANNELS 6 Xposition Yposition Zposition Zrotation Xrotation Yrotation
				End Site
				{
					OFFSET 0.000000 -8.328398 0.000001
				}
			}
		}
	}
}
MOTION
Frames: 7
Frame Time: 0.041667
-26.079199 -5.133192 44.057606 334.751232 5.349785 -8.983986 -0.673002 0.623898 5.369211 -5.350184 12.618458 -6.222892 0.000003 -0.000002 4.415009 2.600019 -4.546500 -0.592594 -0.000001 0.000002 10.273308 -40.993467 34.135814 21.399099 -0.000005 0.000008 2.173889 -0.187255 -0.084321 -1.935787 2.359904 -0.565202 5.928093 19.072639 -16.247031 -36.730592 5.443698 -0.000005 -0.000001 114.083509 223.251304 -306.176098 0.000003 -0.000005 -10.615798 179.187458 -176.298480 177.317476 -0.000001 -0.000006 -13.110309 -357.755419 1.375735 1.594213 -2.636599 -1.718800 6.889703 -8.865153 -7.776718 19.553961 -4.139092 -0.000002 -0.000001 210.255926 -157.399551 304.184414 0.000000 -0.000005 -10.471804 -9.246350 1.095449 2.570405 0.000007 -0.000003 -12.281887 -14.566067 9.827035 -5.113451 2.273398 0.176707 -2.518000 -164.149540 -165.340288 -184.746194 0.000001 0.000001 -20.456390 -33.727621 42.272082 21.937447 -0.000005 -0.000001 -16.635300 31.429153 8.147752 15.371909 -1.914797 0.018104 -2.699299 55.251934 212.934235 113.046898 0.000004 -0.000007 -20.148901 56.262976 62.421201 10.486576 -0.000002 -0.000003 -16.838305 23.167235 50.083540 -8.591154
-25.349100 -5.296890 44.423103 334.404067 5.823347 -9.123238 -0.673003 0.623899 5.369208 -4.785587 11.109532 -6.943772 0.000001 0.000003 4.415004 2.408951 -4.853675 -0.618556 -0.000001 -0.000003 10.273294 -40.901652 32.842688 22.444268 -0.000003 -0.000006 2.173906 -0.265030 -0.137385 -1.834452 2.359901 -0.565205 5.928097 19.591848 -15.070316 -34.283913 5.443696 -0.000003 -0.000002 118.288194 223.180693 -305.277217 -0.000002 0.000001 -10.615791 180.094808 -177.324224 177.613619 0.000005 -0.000007 -13.110298 -356.767855 1.514879 0.789466 -2.636601 -1.718803 6.889698 -11.091163 -7.993139 17.618562 -4.139099 -0.000001 -0.000004 224.843626 -149.486162 314.735090 0.000005 -0.000004 -10.471787 -6.311212 1.611280 3.368447 -0.000001 -0.000004 -12.281898 -14.500599 7.451812 -3.706923 2.273398 0.176700 -2.517994 -166.517239 -166.566034 -183.798369 0.000002 0.000003 -20.456400 -29.169771 40.302590 19.480348 -0.000008 -0.000000 -16.635300 31.356353 8.886442 15.945536 -1.914796 0.018104 -2.699301 51.897758 211.684242 108.655421 0.000007 -0.000005 -20.148903 64.110915 66.604453 4.732398 0.000001 0.000001 -16.838299 17.956603 48.776918 -7.519936
-24.649399 -5.442095 44.720802 334.201757 6.145023 -9.069921 -0.673003 0.623898 5.369210 -4.242387 9.875070 -7.768929 -0.000002 -0.000003 4.415000 2.230503 -5.031354 -0.630350 0.000001 0.000001 10.273302 -40.706196 31.552356 23.111084 -0.000006 -0.000003 2.173897 -0.333947 -0.207354 -1.740523 2.359897 -0.565203 5.928111 19.962044 -14.138525 -32.102371 5.443706 -0.000001 -0.000005 122.315533 223.211169 -304.225942 -0.000003 -0.000005 -10.615792 181.210164 -178.245985 177.905213 -0.000002 -0.000006 -13.110297 -356.274033 1.530643 1.326094 -2.636599 -1.718804 6.889718 -11.812629 -8.157470 16.702750 -4.139102 0.000001 -0.000007 241.866861 -143.080005 327.584970 0.000008 0.000000 -10.471803 -3.606382 1.418190 3.274509 0.000000 -0.000002 -12.281903 -13.888235 4.297667 -1.921604 2.273397 0.176704 -2.517995 -168.675319 -167.558255 -182.976629 0.000003 0.000000 -20.456396 -25.362917 38.487047 17.410678 -0.000006 -0.000001 -16.635300 31.308662 9.532986 16.458987 -1.914800 0.018102 -2.699294 48.976066 210.424249 104.426639 0.000004 -0.000004 -20.148897 80.539473 71.214892 -9.315551 0.000004 -0.000003 -16.838301 9.993374 45.984122 -5.740340
-23.985802 -5.575191 44.964203 334.138974 6.357103 -8.937825 -0.673003 0.623893 5.369209 -3.671648 8.771875 -8.584615 -0.000000 -0.000003 4.415005 2.006677 -5.155127 -0.638231 0.000000 0.000000 10.273301 -40.537514 30.385445 23.654178 -0.000003 0.000001 2.173898 -0.424138 -0.222947 -1.709682 2.359902 -0.565204 5.928098 20.855656 -14.286290 -30.346302 5.443692 -0.000001 -0.000003 125.821729 223.024555 -302.066045 0.000003 0.000000 -10.615796 182.610654 -178.988031 178.129899 -0.000000 -0.000007 -13.110300 -355.954899 1.527894 1.960209 -2.636601 -1.718803 6.889706 -14.022541 -9.952224 15.780187 -4.139089 -0.000001 -0.000001 260.228814 -140.567984 339.386171 0.000000 0.000000 -10.471792 -3.065981 -0.056987 2.607988 -0.000005 -0.000001 -12.281892 -12.157773 1.015849 -1.077226 2.273398 0.176700 -2.518000 -170.468449 -168.401101 -182.259049 0.000001 -0.000003 -20.456394 -22.200053 36.762728 15.730402 -0.000007 0.000000 -16.635300 30.895302 9.953402 17.497498 -1.914800 0.018098 -2.699298 46.273746 209.211126 100.276610 0.000000 -0.000003 -20.148905 109.482844 73.653359 -36.012203 -0.000002 -0.000012 -16.838299 0.533918 42.138203 -4.235855
-23.354698 -5.700693 45.162308 334.114085 6.538753 -8.840663 -0.673001 0.623900 5.369213 -2.987063 7.686864 -9.282119 0.000001 0.000001 4.415010 1.691205 -5.124474 -0.631923 0.000001 -0.000003 10.273304 -40.446102 29.277343 24.087150 0.000001 -0.000006 2.173910 -0.453902 -0.208282 -1.706591 2.359900 -0.565204 5.928094 21.221299 -14.362843 -29.280092 5.443705 -0.000001 -0.000005 130.273537 222.243537 -299.262771 0.000001 -0.000000 -10.615798 184.421555 -179.683289 178.392042 0.000001 -0.000010 -13.110309 -355.299938 1.549977 2.299362 -2.636599 -1.718802 6.889705 -14.804640 -11.352173 16.381159 -4.139096 0.000000 -0.000004 273.170984 -139.462067 348.136682 -0.000000 -0.000003 -10.471807 -5.658788 -2.459793 1.526540 -0.000001 -0.000002 -12.281893 -10.090569 -1.938408 -0.927722 2.273400 0.176705 -2.518002 -171.942950 -169.177010 -181.603091 -0.000005 0.000001 -20.456396 -19.524222 35.011498 14.358219 -0.000007 -0.000000 -16.635303 31.002416 10.647437 16.483774 -1.914798 0.018106 -2.699299 43.787800 208.071113 96.123083 0.000003 -0.000001 -20.148903 141.166418 71.009741 -65.976670 -0.000001 0.000000 -16.838305 -9.435898 37.791082 -3.900278
-22.754601 -5.819895 45.326508 334.130996 6.717851 -8.592754 -0.673004 0.623898 5.369207 -2.239966 6.594913 -10.047282 -0.000003 0.000000 4.415009 1.386270 -5.062797 -0.622162 -0.000002 -0.000002 10.273298 -40.531569 28.287322 24.524557 -0.000002 -0.000001 2.173899 -0.454130 -0.161440 -1.746129 2.359896 -0.565205 5.928092 21.389333 -14.302959 -28.635582 5.443702 -0.000006 0.000000 134.903585 220.873701 -296.240413 -0.000001 -0.000007 -10.615802 186.169660 -180.280289 178.639131 0.000002 -0.000014 -13.110323 -354.008240 1.558149 2.592856 -2.636605 -1.718802 6.889702 -14.292998 -14.215131 17.517113 -4.139094 0.000000 0.000001 280.167557 -138.923848 351.802854 0.000004 -0.000008 -10.471801 -10.394800 -5.031011 -0.097558 -0.000001 -0.000003 -12.281900 -6.901447 -4.916660 -1.708306 2.273399 0.176702 -2.518000 -173.127537 -169.845672 -181.200711 0.000001 -0.000006 -20.456398 -17.207297 33.263796 13.303856 -0.000006 -0.000002 -16.635300 30.194689 11.010268 17.428343 -1.914797 0.018102 -2.699299 41.500830 206.850940 92.195533 -0.000006 -0.000001 -20.148903 159.883486 65.586762 -83.840996 -0.000002 -0.000002 -16.838301 -18.276049 33.791507 -4.905230
-22.178596 -5.934591 45.464703 334.126980 6.889531 -8.403318 -0.672999 0.623898 5.369213 -1.403053 5.523792 -10.653335 0.000002 -0.000000 4.415009 1.091224 -4.973338 -0.609469 0.000000 -0.000001 10.273304 -40.778630 27.360799 24.940166 -0.000005 0.000003 2.173900 -0.376922 -0.093016 -1.860453 2.359900 -0.565202 5.928097 21.464549 -14.206700 -27.866079 5.443692 -0.000001 0.000002 139.220169 218.420912 -293.535467 -0.000000 -0.000011 -10.615798 187.447233 -180.772322 178.859213 0.000001 -0.000005 -13.110294 -351.543225 1.584602 2.933988 -2.636603 -1.718803 6.889700 -15.862746 -14.234563 17.808520 -4.139092 -0.000000 0.000004 287.298493 -139.638436 356.930441 0.000003 -0.000003 -10.471812 -16.515232 -7.554673 -2.286049 0.000005 -0.000003 -12.281892 -4.034316 -7.305180 -2.651983 2.273402 0.176703 -2.517990 -174.072002 -170.464651 -180.814970 -0.000001 -0.000006 -20.456390 -15.326041 31.557451 12.584021 -0.000006 -0.000004 -16.635302 29.649906 11.398936 17.437886 -1.914796 0.018105 -2.699296 39.335947 205.633978 88.368653 0.000002 -0.000002 -20.148905 170.151460 59.736213 -93.944054 -0.000005 0.000000 -16.838303 -26.319388 29.980473 -6.773559
